<svg id="Warstwa_1" data-name="Warstwa 1" xmlns="http://www.w3.org/2000/svg" viewBox="0 0 678.41 398.34"><defs><style>.cls-1,.cls-3{fill:#3f45fb;}.cls-1{opacity:0.5;}.cls-2{fill:#fff;}</style></defs><polygon class="cls-1" points="307.74 232.85 222.13 90.17 285.07 68.43 370.68 211.12 307.74 232.85"/><polygon class="cls-1" points="370.5 233.88 456.11 91.19 393.18 69.46 307.57 212.14 370.5 233.88"/><circle class="cls-2" cx="339.21" cy="33.29" r="33.29"/><circle class="cls-3" cx="339.21" cy="221.98" r="33.29"/><circle class="cls-2" cx="253.6" cy="171.25" r="33.29"/><circle class="cls-2" cx="424.82" cy="171.25" r="33.29"/><circle class="cls-3" cx="253.6" cy="79.3" r="33.29"/><circle class="cls-3" cx="424.82" cy="79.3" r="33.29"/><path class="cls-2" d="M44.61,362l-1.11,4.7h-.27L42,362,27.35,317.27H0l30.8,78.86H55.93l30.8-78.86H57.87Zm116.73-35.84a43.38,43.38,0,0,0-13.6-8.83,44.58,44.58,0,0,0-33.42,0,43.42,43.42,0,0,0-13.61,8.83,41.75,41.75,0,0,0-9.18,13.19,40.32,40.32,0,0,0,0,32.32,42.27,42.27,0,0,0,22.79,22.17,44.71,44.71,0,0,0,33.42,0,42.36,42.36,0,0,0,22.79-22.17,40.32,40.32,0,0,0,0-32.32A41.78,41.78,0,0,0,161.34,326.17Zm-12,36.79a18.44,18.44,0,0,1-4.21,6.05,20.93,20.93,0,0,1-6.29,4.06,20.57,20.57,0,0,1-15.47,0,20.76,20.76,0,0,1-6.28-4.06A19.09,19.09,0,0,1,112.8,363a18,18,0,0,1-1.59-7.51,17.66,17.66,0,0,1,1.59-7.36,19.74,19.74,0,0,1,4.28-6.12,20.22,20.22,0,0,1,6.28-4.13,20.57,20.57,0,0,1,15.47,0,20.38,20.38,0,0,1,6.29,4.13,19.06,19.06,0,0,1,4.21,6.12,18.41,18.41,0,0,1,1.52,7.36A18.77,18.77,0,0,1,149.33,363Zm35.86,33.17h23.34V292.27H185.19Zm64.52-54.3A20.26,20.26,0,0,1,256,337.7a19.66,19.66,0,0,1,7.73-1.51q8.28,0,15.19,6.9l16.85-15.33A46.44,46.44,0,0,0,281,317.47,43.71,43.71,0,0,0,233.41,326a41.5,41.5,0,0,0-9.13,13.19,40.52,40.52,0,0,0,0,32.31A42.11,42.11,0,0,0,247,393.71,43,43,0,0,0,263.73,397a42,42,0,0,0,17.06-3.48,48.27,48.27,0,0,0,14.57-10l-16.58-15.66q-6.9,6.62-15,6.62a19.66,19.66,0,0,1-7.73-1.51,20.81,20.81,0,0,1-6.29-4.06,18.09,18.09,0,0,1-4.21-6.05,18.56,18.56,0,0,1-1.52-7.5A18.25,18.25,0,0,1,245.5,348,18.9,18.9,0,0,1,249.71,341.83Zm124.57-14.48a42.51,42.51,0,0,0-13.65-8.91A43.34,43.34,0,0,0,344,315.19a42.9,42.9,0,0,0-16.62,3.25,43.63,43.63,0,0,0-13.65,8.91,41.91,41.91,0,0,0-9.24,13.26,40.38,40.38,0,0,0,0,32.32,41.85,41.85,0,0,0,9.25,13.25,43.37,43.37,0,0,0,13.68,8.91A42.92,42.92,0,0,0,344,398.34a35.19,35.19,0,0,0,19.75-6.12l-.42,4h23.48v-39.5a39.18,39.18,0,0,0-3.38-16.16A42.37,42.37,0,0,0,374.28,327.35Zm-12,36.82a19.71,19.71,0,0,1-4.3,6,20.28,20.28,0,0,1-6.3,4.12,20.69,20.69,0,0,1-15.52,0,20.21,20.21,0,0,1-6.31-4.12,19,19,0,0,1-4.23-6,18.08,18.08,0,0,1-1.52-7.4,18.63,18.63,0,0,1,1.52-7.48,18.16,18.16,0,0,1,4.23-6,20.73,20.73,0,0,1,6.31-4,20.69,20.69,0,0,1,15.52,0,20.8,20.8,0,0,1,6.3,4,18.8,18.8,0,0,1,4.3,6,17.88,17.88,0,0,1,1.6,7.48A17.35,17.35,0,0,1,362.31,364.17Zm83-49.25a36.07,36.07,0,0,0-10.34,1.87,25.72,25.72,0,0,0-9.23,5.36L426,317H402.36v39.36l.28,39.78h22.79l.13-41.89a15.66,15.66,0,0,1,1.52-7,15.87,15.87,0,0,1,4.19-5.3,19.12,19.12,0,0,1,6.27-3.38,24.62,24.62,0,0,1,7.71-1.17q8.38,0,14,4.41t5.85,14.6l.42,39.69h22.79l-.14-38.81Q487.85,313.67,445.27,314.92Zm126.57,11.25a43.42,43.42,0,0,0-13.61-8.83,44.58,44.58,0,0,0-33.42,0,43.49,43.49,0,0,0-13.6,8.83A41.78,41.78,0,0,0,502,339.36a40.32,40.32,0,0,0,0,32.32,42.36,42.36,0,0,0,22.79,22.17,44.71,44.71,0,0,0,33.42,0A42.27,42.27,0,0,0,581,371.68a40.21,40.21,0,0,0,0-32.32A41.59,41.59,0,0,0,571.84,326.17Zm-12,36.79a18.15,18.15,0,0,1-4.21,6.05,20.88,20.88,0,0,1-6.28,4.06,20.57,20.57,0,0,1-15.47,0,20.81,20.81,0,0,1-6.29-4.06,19.25,19.25,0,0,1-4.28-6.05,18,18,0,0,1-1.59-7.51,17.66,17.66,0,0,1,1.59-7.36,19.91,19.91,0,0,1,4.28-6.12,20.26,20.26,0,0,1,6.29-4.13,20.57,20.57,0,0,1,15.47,0,20.33,20.33,0,0,1,6.28,4.13,18.75,18.75,0,0,1,4.21,6.12,18.41,18.41,0,0,1,1.52,7.36A18.77,18.77,0,0,1,559.82,363Zm85.45-6.61L675,317.13H647.2L633.11,336.6l-1.79,2.63-1.8-2.63-14.78-19.47H587.4l29.28,37.15-30.8,41.85h26.79l16.16-21,2.35-3.31,2.49,3.45,16.15,20.86h28.59Z"/></svg>